<svg width="1000" height="500" viewBox="0,0,1000,500" style="max-width: 100%; height: auto; height: intrinsic;"><text name="maintitle" class="title" x="0" y="0" style="font-size: 21pt; font-family: Arial; fill: rgb(42, 49, 53);"></text><text name="subtitle" class="title" x="0" y="0" style="font-size: 15pt; font-family: Arial; fill: rgb(81, 90, 94);"></text><text name="link" class="title" alignment-baseline="ideographic" x="0" y="500" style="font-size: 13pt; font-family: Arial; fill: rgb(170, 170, 170);"></text><g class="chartg" name="chartg"><g class="yaxis_1" name="yaxis_1" fill="none" font-size="10" font-family="sans-serif" text-anchor="end"><g class="tick" opacity="1" transform="translate(0,465.85052490234375)"><line stroke="currentColor" x2="844.2113647460938" style="stroke: rgb(171, 171, 171); stroke-opacity: 0.4;"></line><text fill="currentColor" x="5" dy="-4" name="yax_1" style="font-family: Arial; font-size: 12pt; text-anchor: start; fill: rgb(102, 92, 84);">0</text></g><g class="tick" opacity="1" transform="translate(0,385.8856807212315)"><line stroke="currentColor" x2="844.2113647460938" style="stroke: rgb(171, 171, 171); stroke-opacity: 0.4;"></line><text fill="currentColor" x="5" dy="-4" name="yax_2" style="font-family: Arial; font-size: 12pt; text-anchor: start; fill: rgb(102, 92, 84);">20</text></g><g class="tick" opacity="1" transform="translate(0,305.92083654011924)"><line stroke="currentColor" x2="844.2113647460938" style="stroke: rgb(171, 171, 171); stroke-opacity: 0.4;"></line><text fill="currentColor" x="5" dy="-4" name="yax_3" style="font-family: Arial; font-size: 12pt; text-anchor: start; fill: rgb(102, 92, 84);">40</text></g><g class="tick" opacity="1" transform="translate(0,225.95599235900696)"><line stroke="currentColor" x2="844.2113647460938" style="stroke: rgb(171, 171, 171); stroke-opacity: 0.4;"></line><text fill="currentColor" x="5" dy="-4" name="yax_4" style="font-family: Arial; font-size: 12pt; text-anchor: start; fill: rgb(102, 92, 84);">60</text></g><g class="tick" opacity="1" transform="translate(0,145.99114817789476)"><line stroke="currentColor" x2="844.2113647460938" style="stroke: rgb(171, 171, 171); stroke-opacity: 0.4;"></line><text fill="currentColor" x="5" dy="-4" name="yax_5" style="font-family: Arial; font-size: 12pt; text-anchor: start; fill: rgb(102, 92, 84);">80</text></g><g class="tick" opacity="1" transform="translate(0,66.0263039967825)"><line stroke="currentColor" x2="844.2113647460938" style="stroke: rgb(171, 171, 171); stroke-opacity: 0.4;"></line><text fill="currentColor" x="5" dy="-4" name="yax_6" style="font-family: Arial; font-size: 12pt; text-anchor: start; fill: rgb(102, 92, 84);">100</text></g></g><g class="xaxis"><g class="gridxm_1" fill="none" font-size="10" font-family="sans-serif" text-anchor="middle" transform="translate(0, 16)"><g class="tick" opacity="1" transform="translate(126.06583297491909,0)"><line stroke="currentColor" y2="449.35052490234375" style="stroke: rgb(188, 188, 188); stroke-opacity: 0.4; stroke-width: 0.5; shape-rendering: crispedges;"></line><text fill="currentColor" y="452.35052490234375" dy="0.71em"></text></g><g class="tick" opacity="1" transform="translate(235.27935142772586,0)"><line stroke="currentColor" y2="449.35052490234375" style="stroke: rgb(188, 188, 188); stroke-opacity: 0.4; stroke-width: 0.5; shape-rendering: crispedges;"></line><text fill="currentColor" y="452.35052490234375" dy="0.71em"></text></g><g class="tick" opacity="1" transform="translate(344.642477440057,0)"><line stroke="currentColor" y2="449.35052490234375" style="stroke: rgb(188, 188, 188); stroke-opacity: 0.4; stroke-width: 0.5; shape-rendering: crispedges;"></line><text fill="currentColor" y="452.35052490234375" dy="0.71em"></text></g><g class="tick" opacity="1" transform="translate(453.8559958928638,0)"><line stroke="currentColor" y2="449.35052490234375" style="stroke: rgb(188, 188, 188); stroke-opacity: 0.4; stroke-width: 0.5; shape-rendering: crispedges;"></line><text fill="currentColor" y="452.35052490234375" dy="0.71em"></text></g><g class="tick" opacity="1" transform="translate(563.2191219051949,0)"><line stroke="currentColor" y2="449.35052490234375" style="stroke: rgb(188, 188, 188); stroke-opacity: 0.4; stroke-width: 0.5; shape-rendering: crispedges;"></line><text fill="currentColor" y="452.35052490234375" dy="0.71em"></text></g><g class="tick" opacity="1" transform="translate(672.4326403580018,0)"><line stroke="currentColor" y2="449.35052490234375" style="stroke: rgb(188, 188, 188); stroke-opacity: 0.4; stroke-width: 0.5; shape-rendering: crispedges;"></line><text fill="currentColor" y="452.35052490234375" dy="0.71em"></text></g><g class="tick" opacity="1" transform="translate(781.7957663703329,0)"><line stroke="currentColor" y2="449.35052490234375" style="stroke: rgb(188, 188, 188); stroke-opacity: 0.4; stroke-width: 0.5; shape-rendering: crispedges;"></line><text fill="currentColor" y="452.35052490234375" dy="0.71em"></text></g></g><g class="gridxy_1" fill="none" font-size="10" font-family="sans-serif" text-anchor="middle" transform="translate(0, 16)"><g class="tick" opacity="1" transform="translate(71.45907374851569,0)"><line stroke="currentColor" y2="449.35052490234375" transform="translate(0, 0)" style="stroke: rgb(188, 188, 188); stroke-opacity: 0.4; stroke-width: 2; shape-rendering: crispedges;"></line><text fill="currentColor" y="452.35052490234375" dy="0.71em"></text></g><g class="tick" opacity="1" transform="translate(126.06583297491909,0)"><line stroke="currentColor" y2="449.35052490234375" transform="translate(0, 0)" style="stroke: rgb(188, 188, 188); stroke-opacity: 0.4; stroke-width: 2; shape-rendering: crispedges;"></line><text fill="currentColor" y="452.35052490234375" dy="0.71em"></text></g><g class="tick" opacity="1" transform="translate(180.67259220132246,0)"><line stroke="currentColor" y2="449.35052490234375" transform="translate(0, 0)" style="stroke: rgb(188, 188, 188); stroke-opacity: 0.4; stroke-width: 2; shape-rendering: crispedges;"></line><text fill="currentColor" y="452.35052490234375" dy="0.71em"></text></g><g class="tick" opacity="1" transform="translate(235.27935142772586,0)"><line stroke="currentColor" y2="449.35052490234375" transform="translate(0, 0)" style="stroke: rgb(188, 188, 188); stroke-opacity: 0.4; stroke-width: 2; shape-rendering: crispedges;"></line><text fill="currentColor" y="452.35052490234375" dy="0.71em"></text></g><g class="tick" opacity="1" transform="translate(290.03571821365364,0)"><line stroke="currentColor" y2="449.35052490234375" transform="translate(0, 0)" style="stroke: rgb(188, 188, 188); stroke-opacity: 0.4; stroke-width: 2; shape-rendering: crispedges;"></line><text fill="currentColor" y="452.35052490234375" dy="0.71em"></text></g><g class="tick" opacity="1" transform="translate(344.642477440057,0)"><line stroke="currentColor" y2="449.35052490234375" transform="translate(0, 0)" style="stroke: rgb(188, 188, 188); stroke-opacity: 0.4; stroke-width: 2; shape-rendering: crispedges;"></line><text fill="currentColor" y="452.35052490234375" dy="0.71em"></text></g><g class="tick" opacity="1" transform="translate(399.2492366664604,0)"><line stroke="currentColor" y2="449.35052490234375" transform="translate(0, 0)" style="stroke: rgb(188, 188, 188); stroke-opacity: 0.4; stroke-width: 2; shape-rendering: crispedges;"></line><text fill="currentColor" y="452.35052490234375" dy="0.71em"></text></g><g class="tick" opacity="1" transform="translate(453.8559958928638,0)"><line stroke="currentColor" y2="449.35052490234375" transform="translate(0, 0)" style="stroke: rgb(188, 188, 188); stroke-opacity: 0.4; stroke-width: 2; shape-rendering: crispedges;"></line><text fill="currentColor" y="452.35052490234375" dy="0.71em"></text></g><g class="tick" opacity="1" transform="translate(508.6123626787916,0)"><line stroke="currentColor" y2="449.35052490234375" transform="translate(0, 0)" style="stroke: rgb(188, 188, 188); stroke-opacity: 0.4; stroke-width: 2; shape-rendering: crispedges;"></line><text fill="currentColor" y="452.35052490234375" dy="0.71em"></text></g><g class="tick" opacity="1" transform="translate(563.2191219051949,0)"><line stroke="currentColor" y2="449.35052490234375" transform="translate(0, 0)" style="stroke: rgb(188, 188, 188); stroke-opacity: 0.4; stroke-width: 2; shape-rendering: crispedges;"></line><text fill="currentColor" y="452.35052490234375" dy="0.71em"></text></g><g class="tick" opacity="1" transform="translate(617.8258811315984,0)"><line stroke="currentColor" y2="449.35052490234375" transform="translate(0, 0)" style="stroke: rgb(188, 188, 188); stroke-opacity: 0.4; stroke-width: 2; shape-rendering: crispedges;"></line><text fill="currentColor" y="452.35052490234375" dy="0.71em"></text></g><g class="tick" opacity="1" transform="translate(672.4326403580018,0)"><line stroke="currentColor" y2="449.35052490234375" transform="translate(0, 0)" style="stroke: rgb(188, 188, 188); stroke-opacity: 0.4; stroke-width: 2; shape-rendering: crispedges;"></line><text fill="currentColor" y="452.35052490234375" dy="0.71em"></text></g><g class="tick" opacity="1" transform="translate(727.1890071439295,0)"><line stroke="currentColor" y2="449.35052490234375" transform="translate(0, 0)" style="stroke: rgb(188, 188, 188); stroke-opacity: 0.4; stroke-width: 2; shape-rendering: crispedges;"></line><text fill="currentColor" y="452.35052490234375" dy="0.71em"></text></g><g class="tick" opacity="1" transform="translate(781.7957663703329,0)"><line stroke="currentColor" y2="449.35052490234375" transform="translate(0, 0)" style="stroke: rgb(188, 188, 188); stroke-opacity: 0.4; stroke-width: 2; shape-rendering: crispedges;"></line><text fill="currentColor" y="452.35052490234375" dy="0.71em"></text></g><g class="tick" opacity="1" transform="translate(836.4025255967363,0)"><line stroke="currentColor" y2="449.35052490234375" transform="translate(0, 0)" style="stroke: rgb(188, 188, 188); stroke-opacity: 0.4; stroke-width: 2; shape-rendering: crispedges;"></line><text fill="currentColor" y="452.35052490234375" dy="0.71em"></text></g></g><g name="ggjy" class="justyears" fill="none" font-size="10" font-family="sans-serif" text-anchor="middle" transform="translate(0, 465.35052490234375)"><path class="domain" stroke="currentColor" d="M37.19270896911621,0.5H849.7113647460938" style="stroke: rgb(136, 136, 136);"></path><g class="tick" opacity="1" transform="translate(126.06583297491909,0)"><line stroke="currentColor" y2="5" style="stroke: rgb(188, 188, 188);"></line><text fill="currentColor" y="8" dy="0.71em" style="font-family: Arial; font-size: 12pt; fill: rgb(136, 136, 136); stroke-opacity: 0.4;">2010</text></g><g class="tick" opacity="1" transform="translate(235.27935142772586,0)"><line stroke="currentColor" y2="5" style="stroke: rgb(188, 188, 188);"></line><text fill="currentColor" y="8" dy="0.71em" style="font-family: Arial; font-size: 12pt; fill: rgb(136, 136, 136); stroke-opacity: 0.4;">2012</text></g><g class="tick" opacity="1" transform="translate(344.642477440057,0)"><line stroke="currentColor" y2="5" style="stroke: rgb(188, 188, 188);"></line><text fill="currentColor" y="8" dy="0.71em" style="font-family: Arial; font-size: 12pt; fill: rgb(136, 136, 136); stroke-opacity: 0.4;">2014</text></g><g class="tick" opacity="1" transform="translate(453.8559958928638,0)"><line stroke="currentColor" y2="5" style="stroke: rgb(188, 188, 188);"></line><text fill="currentColor" y="8" dy="0.71em" style="font-family: Arial; font-size: 12pt; fill: rgb(136, 136, 136); stroke-opacity: 0.4;">2016</text></g><g class="tick" opacity="1" transform="translate(563.2191219051949,0)"><line stroke="currentColor" y2="5" style="stroke: rgb(188, 188, 188);"></line><text fill="currentColor" y="8" dy="0.71em" style="font-family: Arial; font-size: 12pt; fill: rgb(136, 136, 136); stroke-opacity: 0.4;">2018</text></g><g class="tick" opacity="1" transform="translate(672.4326403580018,0)"><line stroke="currentColor" y2="5" style="stroke: rgb(188, 188, 188);"></line><text fill="currentColor" y="8" dy="0.71em" style="font-family: Arial; font-size: 12pt; fill: rgb(136, 136, 136); stroke-opacity: 0.4;">2020</text></g><g class="tick" opacity="1" transform="translate(781.7957663703329,0)"><line stroke="currentColor" y2="5" style="stroke: rgb(188, 188, 188);"></line><text fill="currentColor" y="8" dy="0.71em" style="font-family: Arial; font-size: 12pt; fill: rgb(136, 136, 136); stroke-opacity: 0.4;">2022</text></g></g></g><g class="linesg" name="linesg"><path fill="none" stroke-width="5" stroke-opacity="0.65" stroke="#6da7de" d="M36.69270896911621,78.38465094110532L40.881720635799205,79.65209372137596L45.070732302482206,80.6476560314308L49.25974396916521,81.59124119276794L53.44875563584821,82.71074901130353L57.6377673025312,82.71074901130353L61.83301261752772,82.26294588388932L66.02202428421073,82.7587279178122L70.21103595089372,83.37845546021583L74.40004761757672,83.8622427675115L78.58905928425972,85.32959765823493L82.77807095094272,88.04040587597463L86.96084896931221,88.91602091975781L91.1498606359952,90.0955023714292L95.33887230267821,90.55130198326157L99.5278839693612,91.2789820653097L103.7168956360442,92.3225232818732L107.90590730272721,93.2181295367017L112.0949189694102,93.68192563295213L116.29016428440673,92.89027367555906L120.47917595108973,93.77788344596944L124.66818761777272,95.5291135335358L128.8571992844557,97.92006237455108L133.04621095113873,97.76013268618884L137.2352226178217,96.7165914696253L141.4180006361912,97.26834889447494L145.60701230287418,97.68016784200773L149.7960239695572,98.51580046370039L153.9850356362402,99.29945593667524L158.1740473029232,99.06355964634099L162.3630589696062,99.19550163923982L166.5520706362892,99.11153855284965L170.7410823029722,100.59488641240924L174.93632761796874,100.63486883449984L179.12533928465172,100.21505340254899L183.31435095133472,99.22748757691227L187.50336261801772,99.45938562503743L191.6923742847007,99.60732058677252L195.8751523030702,99.41940320294694L200.06416396975317,99.50736453154613L204.2531756364362,99.63131004002686L208.4421873031192,100.15108152720406L212.6311989698022,101.23860340806722L216.8202106364852,102.1142184518504L221.0092223031682,103.28970166131272L225.19823396985117,103.97340107906128L229.39347928484773,104.3972147532211L233.5824909515307,104.3972147532211L237.77150261821373,104.48117783961129L241.96051428489673,105.37278585223069L246.1495259515797,106.400334099958L250.33230396994918,107.00007043131635L254.52131563663215,107.58381379383847L258.71032730331524,106.96008800922581L262.8993389699982,107.74774172440975L267.08835063668124,110.38658158238644L271.2773623033642,112.00187143484492L275.4663739700472,113.61316304509435L279.6553856367302,115.13249508453546L283.8506309517267,116.99567595395541L288.03964261840974,118.96680936301982L292.2286542850927,119.94637870423843L296.4176659517757,121.65362812750519L300.60667761845866,123.3888652462353L304.78945563682817,125.69185275865135L308.9784673035112,127.62700198783423L313.16747897019417,130.4617557140547L317.3564906368772,131.40134263318276L321.5455023035602,130.7536273953157L325.7345139702432,130.62568364462595L329.92352563692623,130.88157114600557L334.1125373036092,131.417335602019L338.3077826186057,132.21698404383017L342.4967942852887,132.71276607775303L346.6858059519717,133.88425104500627L350.87481761865473,134.47199264973744L355.0638292853377,134.67190476019024L359.24660730370715,136.2791981282306L363.4356189703901,136.17524383079518L367.6246306370732,136.22322273730384L371.8136423037562,136.79497137319876L376.00265397043916,137.07484832783265L380.1916656371222,137.094839538878L384.3806773038052,137.35072704025748L388.5696889704882,137.58662333059178L392.7649342854847,137.40670243118427L396.95394595216766,137.33073582921224L401.1429576188507,136.667027622509L405.33196928553366,136.34317000357552L409.5209809522167,136.44712430101094L413.70375897058614,134.9837676524966L417.89277063726917,134.77585905762567L422.08178230395214,135.66346882803603L426.27079397063517,136.45911902763808L430.4598056373182,137.77054247220835L434.64881730400117,139.14193954991447L438.8378289706842,140.18947900868702L443.02684063736723,141.90072667416283L447.2220859523637,143.48802883115786L451.4110976190467,145.41118333371367L455.60010928572973,147.29435541417877L459.78912095241265,148.68574370293018L463.97813261909573,149.96917945203703L468.1609106374652,151.49650797589626L472.3499223041481,153.19975915695395L476.5389339708312,154.21931092026318L480.7279456375142,155.26285213682667L484.9169573041971,155.722649990868L489.1059689708802,156.6222544879056L493.2949806375632,157.6298115245876L497.4839923042462,158.52941602162505L501.67923761924266,159.36105040110863L505.8682492859257,160.19668302280127L510.0572609526087,160.65248263463366L514.2462726192916,161.83996057072315L518.4352842859747,163.02344026460364L522.6180623043442,164.37884437347344L526.8070739710271,166.02212192139532L530.9960856377102,167.31355415492027L535.1850973043931,168.57300045077278L539.3741089710761,169.43662076792884L543.5631206377592,170.028360614869L547.7521323044422,171.25182273084005L551.9411439711251,172.2273938298496L556.1363892861216,173.1509877801415L560.3254009528047,173.32291219513084L564.5144126194876,174.9422002897984L568.7034242861706,175.2980438464043L572.8924359528537,176.29760439866823L577.0752139712231,176.60147080655648L581.2642256379062,176.97730557420772L585.4532373045893,177.86891358682706L589.6422489712721,178.1847747213425L593.8312606379552,178.71254269293783L598.0202723046382,179.20832472686072L602.2092839713212,179.36825441522294L606.3982956380042,179.29228781325088L610.5935409530007,179.32027550871427L614.7825526196837,180.1039309816892L618.9715642863666,179.80406281601L623.1605759530497,179.99198019983564L627.3495876197326,179.6801173075293L631.5323656381022,180.10792922389828L635.7213773047852,180.51175168701283L639.9103889714681,180.77563567281055L644.0994006381511,181.80718216274684L648.2884123048342,182.79074974617453L652.477423971517,184.11016967516292L656.6664356382001,185.6015140191406L660.8554473048831,187.64861403017713L665.0506926198797,189.98758572247465L669.2397042865626,191.11509002542832L673.4287159532456,192.12264706211033L677.6177276199287,193.85388593863146L681.8067392866116,195.53714590864382L685.9895173049812,201.4385514092099L690.178528971664,213.64118663124768L694.3675406383471,224.78428766788565L698.5565523050302,233.58441877001707L702.7455639717131,240.62132505795492L706.9345756383962,245.0633721522157L711.1235873050792,248.4418868188677L715.3125989717621,252.04416152895897L719.5078442867587,256.66501001424973L723.6968559534417,263.681402920675L727.8858676201247,271.9358048315709L732.0748792868077,280.2571898386033L736.2638909534907,288.41611416474785L740.4466689718602,290.9395142717622L744.6356806385431,285.28577727513186L748.8246923052262,280.11051576456083L753.0137039719091,275.77137292234283L757.2027156385922,273.2269063612332L761.3917273052751,271.71441043523515L765.5807389719581,270.58590258564647L769.7697506386411,269.3586049849831L773.9649959536376,266.7588973905555L778.1540076203207,262.6155205861171L782.3430192870036,258.40799654825173L786.5320309536867,253.10417572495595L790.7210426203696,247.1339400944909L794.9038206387391,242.17246851125395L799.0928323054221,239.11803463539198L803.2818439721052,236.3000076127259L807.4708556387881,234.6382863574368L811.6598673054712,232.72106548861677L815.8488789721542,231.57517963654453L820.0378906388371,232.31684133606805L824.2269023055202,233.02907174581736L828.4221476205167,233.7868227585886L832.6111592871997,234.72774062476307L836.8001709538827,234.74822713572985L840.9891826205658,234.8454661596476L845.1781942872486,235.8321285895501L849.2113647460938,236.6483818418592"></path><path fill="none" stroke-width="5" stroke-opacity="0.65" stroke="#9e0059" d="M36.69270896911621,71.50367609932064L40.881720635799205,71.72357942081867L45.070732302482206,72.95903626341688L49.25974396916521,74.36241927879537L53.44875563584821,76.0456792488078L57.6377673025312,77.31712027128746L61.83301261752772,78.84444879514673L66.02202428421073,80.5956788827131L70.21103595089372,81.73117967008487L74.40004761757672,82.69075780025828L78.58905928425972,84.08614433121863L82.77807095094272,85.68544121484086L86.96084896931221,85.91334102075706L91.1498606359952,86.22120567085435L95.33887230267821,86.04528301365589L99.5278839693612,86.85292793988512L103.7168956360442,87.14080137893716L107.90590730272721,87.92045860970298L112.0949189694102,88.01641642272028L116.29016428440673,88.8280595911586L120.47917595108973,88.22432501759124L124.66818761777272,88.22432501759124L128.8571992844557,89.6117150641335L133.04621095113873,90.35538811501783L137.2352226178217,90.33939514618166L141.4180006361912,90.44734768582616L145.60701230287418,90.57129319430682L149.7960239695572,91.29897327635497L153.9850356362402,91.11905237694744L158.1740473029232,91.11905237694744L162.3630589696062,90.8991490554494L166.5520706362892,91.29097679193686L170.7410823029722,91.36694339390887L174.93632761796874,91.51887659785305L179.12533928465172,92.4304758215177L183.31435095133472,92.22656546885584L187.50336261801772,92.72634574498778L191.6923742847007,92.94624906648588L195.8751523030702,93.44602934261782L200.06416396975317,94.27766372210138L204.2531756364362,94.24967602663797L208.4421873031192,94.40960571500025L212.6311989698022,94.62551079428927L216.8202106364852,95.22924536785663L221.0092223031682,95.20125767239323L225.19823396985117,95.00534380414952L229.39347928484773,95.0693156794944L233.5824909515307,94.52555473906283L237.77150261821373,94.30565141756475L241.96051428489673,95.2172506412295L246.1495259515797,95.44515044714564L250.33230396994918,95.98891138757722L254.52131563663215,96.86852467356942L258.71032730331524,97.052443815186L262.8993389699982,97.2883401055203L267.08835063668124,97.38029967632852L271.2773623033642,97.94805007001443L275.4663739700472,97.73214499072547L279.6553856367302,98.18394636034878L283.8506309517267,98.55978112799997L288.03964261840974,98.80367390275231L292.2286542850927,98.70771608973506L296.4176659517757,98.41184616626488L300.60667761845866,97.96804128105973L304.78945563682817,97.9440518278054L308.9784673035112,97.196380534712L313.16747897019417,97.59620475561758L317.3564906368772,97.96404303885065L321.5455023035602,97.83609928816091L325.7345139702432,97.08442975285844L329.92352563692623,97.6881643264258L334.1125373036092,97.43227682504632L338.3077826186057,97.29633658993835L342.4967942852887,97.17638932366671L346.6858059519717,97.13640690157617L350.87481761865473,96.90850709565998L355.0638292853377,96.90450885345095L359.24660730370715,96.67261080532573L363.4356189703901,96.49268990591825L367.6246306370732,96.29277779546543L371.8136423037562,96.22480767791147L376.00265397043916,96.21281295128432L380.1916656371222,96.11285689605793L384.3806773038052,96.27678482662921L388.5696889704882,96.14484283373037L392.7649342854847,96.0328920518768L396.95394595216766,95.73302388619767L401.1429576188507,95.2452383366929L405.33196928553366,94.7574527871881L409.5209809522167,94.70547563847036L413.70375897058614,94.91738247555027L417.89277063726917,94.63350727870737L422.08178230395214,94.70547563847036L426.27079397063517,94.57353364557153L430.4598056373182,94.67348970079792L434.64881730400117,94.72946509172468L438.8378289706842,94.53355122348093L443.02684063736723,95.13328755483933L447.2220859523637,96.08886744280362L451.4110976190467,97.38029967632852L455.60010928572973,98.60376179229954L459.78912095241265,99.3474348431839L463.97813261909573,99.82322566606153L468.1609106374652,100.29501824673008L472.3499223041481,100.84677567157976L476.5389339708312,100.9947106333148L480.7279456375142,101.03069481319632L484.9169573041971,100.79080028065295L489.1059689708802,100.97072118006048L493.2949806375632,101.34255770550264L497.4839923042462,101.54246981595543L501.67923761924266,101.09066844633217L505.8682492859257,100.63886707670888L510.0572609526087,100.01913953430522L514.2462726192916,99.75525554850763L518.4352842859747,99.40341023411068L522.6180623043442,98.68772487868972L526.8070739710271,98.847654567052L530.9960856377102,99.03957019308667L535.1850973043931,99.57533464910009L539.3741089710761,99.8792010569883L543.5631206377592,99.79923621280719L547.7521323044422,99.79523797059811L551.9411439711251,99.33943835876579L556.1363892861216,99.12753152168581L560.3254009528047,98.36386725975622L564.5144126194876,98.67573015206258L568.7034242861706,98.55178464358185L572.8924359528537,98.94761062227835L577.0752139712231,99.21949109249415L581.2642256379062,98.995589528787L585.4532373045893,98.54778640137278L589.6422489712721,98.25991296232078L593.8312606379552,98.04400788303174L598.0202723046382,97.74813795956166L602.2092839713212,97.68016784200773L606.3982956380042,97.700159053053L610.5935409530007,97.78812038165225L614.7825526196837,98.16395514930343L618.9715642863666,98.31588835324756L623.1605759530497,98.79567741833421L627.3495876197326,98.66373542543538L631.5323656381022,98.5917670656724L635.7213773047852,99.15152097494015L639.9103889714681,99.81123093943438L644.0994006381511,99.77124851734379L648.2884123048342,100.1031026206954L652.477423971517,101.0346930554054L656.6664356382001,101.77436786408069L660.8554473048831,102.12621317847754L665.0506926198797,102.21417450707679L669.2397042865626,102.42208310194763L673.4287159532456,102.73794423646308L677.6177276199287,102.95384931575208L681.8067392866116,103.14976318399577L685.9895173049812,106.61623917924702L690.178528971664,117.84730154448422L694.3675406383471,125.43996349948083L698.5565523050302,129.75406684305182L702.7455639717131,132.60081529589945L706.9345756383962,133.59237936374524L711.1235873050792,134.1641279996402L715.3125989717621,136.02902910868318L719.5078442867587,139.01236614861813L723.6968559534417,142.09425642997513L727.8858676201247,146.4321494742063L732.0748792868077,152.02078779128266L736.2638909534907,157.1405427764412L740.4466689718602,158.0532494311027L744.6356806385431,149.87420145409968L748.8246923052262,144.88024405988372L753.0137039719091,142.29794082923618L757.2027156385922,141.34618730578057L761.3917273052751,141.62141553272988L765.5807389719581,141.47482401137503L769.7697506386411,141.23193412205393L773.9649959536376,139.8391628250896L778.1540076203207,138.0623562701989L782.3430192870036,135.35799677908776L786.5320309536867,130.74225741686533L790.7210426203696,127.09028903360027L794.9038206387391,124.76902547242577L799.0928323054221,123.54026109333628L803.2818439721052,122.9231640065555L807.4708556387881,123.30406036821239L811.6598673054712,123.82511813897192L815.8488789721542,124.23159366549923L820.0378906388371,125.44233655119776L824.2269023055202,126.07354437481985L828.4221476205167,126.78484738715338L832.6111592871997,127.5211481013983L836.8001709538827,127.35875345990277L840.9891826205658,128.19121678374165L845.1781942872486,128.87877189592186L849.2113647460938,129.73113661490595"></path><path fill="none" stroke-width="5" stroke-opacity="0.65" stroke="#dee000" d="M36.69270896911621,71.39572355967614L40.881720635799205,72.4232718074034L45.070732302482206,73.16294661607868L49.25974396916521,73.81466009615477L53.44875563584821,75.96171616241762L57.6377673025312,76.56944897819407L61.83301261752772,77.9768302357817L66.02202428421073,80.37177731900596L70.21103595089372,81.56325349730453L74.40004761757672,81.85512517856564L78.58905928425972,83.60235702392293L82.77807095094272,85.37757656474365L86.96084896931221,84.91777871070218L91.1498606359952,84.78983496001244L95.33887230267821,84.48197030991516L99.5278839693612,84.65389472490457L103.7168956360442,86.68100352489569L107.90590730272721,87.30872755171745L112.0949189694102,87.51663614658834L116.29016428440673,87.92045860970298L120.47917595108973,86.86892090872134L124.66818761777272,87.03284883929265L128.8571992844557,88.82006310674045L133.04621095113873,88.75209298918654L137.2352226178217,88.04040587597463L141.4180006361912,88.32428107281757L145.60701230287418,89.21588908543697L149.7960239695572,90.05152170712962L153.9850356362402,91.21900843217387L158.1740473029232,90.20345491107369L162.3630589696062,89.85960608109495L166.5520706362892,90.53131077221633L170.7410823029722,90.01553752724811L174.93632761796874,89.67168869726936L179.12533928465172,91.11905237694744L183.31435095133472,91.57085374657073L187.50336261801772,92.10261996037518L191.6923742847007,93.08618754380281L195.8751523030702,93.45002758482686L200.06416396975317,94.73346333393376L204.2531756364362,95.64106431538934L208.4421873031192,96.20081822465713L212.6311989698022,96.87652115798755L216.8202106364852,98.02801491419558L221.0092223031682,98.847654567052L225.19823396985117,99.61531707119065L229.39347928484773,100.17906922266747L233.5824909515307,99.40740847631974L237.77150261821373,98.56377937020905L241.96051428489673,98.5437881591637L246.1495259515797,98.50380573707321L250.33230396994918,98.2479182356936L254.52131563663215,98.24391999348458L258.71032730331524,97.41228561400096L262.8993389699982,96.6086389299808L267.08835063668124,95.93693423885944L271.2773623033642,95.26522954773814L275.4663739700472,94.2856602065195L279.6553856367302,93.77788344596944L283.8506309517267,93.18614359902925L288.03964261840974,92.5104406656988L292.2286542850927,91.91870081875855L296.4176659517757,92.03464984282117L300.60667761845866,91.47089769134439L304.78945563682817,91.36294515169989L308.9784673035112,90.3473916305997L313.16747897019417,89.73566057261422L317.3564906368772,89.62770803296974L321.5455023035602,89.51575725111616L325.7345139702432,88.97599455289365L329.92352563692623,88.52019494106132L334.1125373036092,87.62458868623284L338.3077826186057,86.32515996828975L342.4967942852887,85.72942187914049L346.6858059519717,85.13768203220026L350.87481761865473,83.9422076116926L355.0638292853377,83.16255038092679L359.24660730370715,82.15899158645385L363.4356189703901,81.00749783024581L367.6246306370732,79.94796364484606L371.8136423037562,78.78047691980186L376.00265397043916,77.82489703183754L380.1916656371222,76.68539800225668L384.3806773038052,76.58944018923937L388.5696889704882,76.37353510995032L392.7649342854847,76.80534526852837L396.95394595216766,76.66540679121144L401.1429576188507,76.1736229994976L405.33196928553366,75.99370210009006L409.5209809522167,75.84976538056404L413.70375897058614,75.88175131823652L417.89277063726917,75.77379877859204L422.08178230395214,75.92973022474519L426.27079397063517,75.79378998963728L430.4598056373182,75.85376362277312L434.64881730400117,76.18961596833381L438.8378289706842,75.80978295847355L443.02684063736723,75.90574077149085L447.2220859523637,76.42151401645903L451.4110976190467,76.72538042434728L455.60010928572973,75.54589897267584L459.78912095241265,76.12564409298889L463.97813261909573,76.79734878411026L468.1609106374652,77.50903589732214L472.3499223041481,78.02480914229035L476.5389339708312,78.38465094110532L480.7279456375142,78.87243649061008L484.9169573041971,78.84045055293765L489.1059689708802,79.04036266339044L493.2949806375632,79.4201956732507L497.4839923042462,79.20429059396174L501.67923761924266,78.76448395096563L505.8682492859257,78.32467730796948L510.0572609526087,79.92397419159173L514.2462726192916,79.24827125826138L518.4352842859747,78.54857887167664L522.6180623043442,78.00081968903604L526.8070739710271,78.004817931245L530.9960856377102,77.78891285195601L535.1850973043931,77.6729638278934L539.3741089710761,77.33711148233276L543.5631206377592,76.99326265235396L547.7521323044422,77.01325386339926L551.9411439711251,76.92129429259099L556.1363892861216,76.78535405748312L560.3254009528047,77.00925562119018L564.5144126194876,78.16474761960728L568.7034242861706,78.25270894820655L572.8924359528537,79.25626774267943L577.0752139712231,78.97639078804556L581.2642256379062,78.74849098212941L585.4532373045893,78.72050328666602L589.6422489712721,78.0088161734541L593.8312606379552,77.6169884369667L598.0202723046382,77.00125913677212L602.2092839713212,76.6134296424937L606.3982956380042,76.20960717937906L610.5935409530007,75.51791127721243L614.7825526196837,74.9341679146903L618.9715642863666,74.25046849694183L623.1605759530497,74.09453705078869L627.3495876197326,72.63917688669241L631.5323656381022,72.26334211904121L635.7213773047852,71.87151438255376L639.9103889714681,71.5716462168746L644.0994006381511,71.55565324803833L648.2884123048342,71.4516989506029L652.477423971517,71.35973937979462L656.6664356382001,70.98790285435247L660.8554473048831,71.24379035573207L665.0506926198797,72.19137375927818L669.2397042865626,72.47924719833021L673.4287159532456,72.58719973797471L677.6177276199287,72.52722610483887L681.8067392866116,72.72713821529165L685.9895173049812,76.39352632099568L690.178528971664,89.09594181916529L694.3675406383471,97.66417487317148L698.5565523050302,102.53003564159218L702.7455639717131,106.15244308299658L706.9345756383962,108.33948157134998L711.1235873050792,110.22665189402426L715.3125989717621,112.16862151636114L719.5078442867587,114.42299371389768L723.6968559534417,117.52482843125176L727.8858676201247,122.30761747635452L732.0748792868077,128.3514922777116L736.2638909534907,133.65082165722345L740.4466689718602,133.80582158190163L744.6356806385431,123.69916269912129L748.8246923052262,117.00199956883102L753.0137039719091,113.89115990515319L757.2027156385922,112.22649754729238L761.3917273052751,111.79723651367746L765.5807389719581,111.33073559552267L769.7697506386411,111.32453150595919L773.9649959536376,110.31249563074236L778.1540076203207,108.86844582502636L782.3430192870036,105.70011378035906L786.5320309536867,101.3074706531796L790.7210426203696,97.67334941491777L794.9038206387391,95.97148294890187L799.0928323054221,95.49396124571051L803.2818439721052,95.54368412678338L807.4708556387881,96.10452883547148L811.6598673054712,96.75981421364291L815.8488789721542,97.76056992601707L820.0378906388371,99.21032120179586L824.2269023055202,99.96967951095178L828.4221476205167,100.51578902732842L832.6111592871997,101.22076851064699L836.8001709538827,101.24225357591082L840.9891826205658,101.79523862011514L845.1781942872486,102.34365404733143L849.2113647460938,102.58068170003487"></path></g><g class="dashg" name="dashg"></g><g class="markg" name="markg"></g><line class="ttvline" style="stroke-dasharray: 2, 2; stroke: rgb(124, 111, 100);"></line><g class="ttcont" style="display: none;"><rect class="tooltip_rect" x="1" y="30" style="fill: rgb(255, 255, 255); stroke: rgb(187, 187, 187);" height="120.88596534729004" width="173.85496520996094"></rect><text class="tt_x" x="10" y="5" name="tt_x" transform="translate(0, 51.54385948181152)" style="font-family: Arial; font-size: 12pt; fill: rgb(171, 171, 171); stroke-opacity: 0.4;">placeholder</text><g name="clr_Central London" transform="translate(10, 77.9912281036377)"><circle r="4" style="fill: rgb(109, 167, 222);"></circle><text x="8" y="5" name="clr_Central London_txt" style="font-size: 11pt; font-family: Arial; fill: rgb(102, 92, 84);">Central London: 96.784</text></g><g name="clr_Inner London" transform="translate(10, 99.43859672546387)"><circle r="4" style="fill: rgb(158, 0, 89);"></circle><text x="8" y="5" name="clr_Inner London_txt" style="font-size: 11pt; font-family: Arial; fill: rgb(102, 92, 84);">Inner London: 96.784</text></g><g name="clr_Outer London" transform="translate(10, 120.88596534729004)"><circle r="4" style="fill: rgb(222, 224, 0);"></circle><text x="8" y="5" name="clr_Outer London_txt" style="font-size: 11pt; font-family: Arial; fill: rgb(102, 92, 84);">Outer London: 96.784</text></g></g><rect class="ttoverlay" width="849.2113647460938" height="488" style="fill: none; pointer-events: all;"></rect><g class="labels" name="labelsg_20"><g name="container_Central London"><circle fill="white" stroke="#6da7de" r="8" cx="849.2113647460938" cy="236.6483818418592"></circle><text name="txt_Central London" x="859.2113647460938" y="247.71136324727235" class="collide" style="fill: rgb(109, 167, 222); font-size: 13pt; font-family: Arial;">Central London</text></g><g name="container_Inner London"><circle fill="white" stroke="#9e0059" r="8" cx="849.2113647460938" cy="129.73113661490595"></circle><text name="txt_Inner London" x="859.2113647460938" y="141.33535359994585" class="collide" style="fill: rgb(158, 0, 89); font-size: 13pt; font-family: Arial;">Inner London</text></g><g name="container_Outer London"><circle fill="white" stroke="#dee000" r="8" cx="849.2113647460938" cy="102.58068170003487"></circle><text name="txt_Outer London" x="859.2113647460938" y="109.89778923979219" class="collide" style="fill: rgb(154, 160, 0); font-size: 13pt; font-family: Arial;">Outer London</text></g></g><g class="annsg" name="annsg"></g></g><g class="collide_cont" name="collide_cont"></g><g class="collide_cont" name="collide_cont"></g><text x="-800" y="-500" name="clr_Central London_txt2" style="font-size: 11pt; font-family: Arial; fill: rgb(102, 92, 84);">Central London: 96.784</text><text x="-800" y="-500" name="clr_Inner London_txt2" style="font-size: 11pt; font-family: Arial; fill: rgb(102, 92, 84);">Inner London: 96.784</text><text x="-800" y="-500" name="clr_Outer London_txt2" style="font-size: 11pt; font-family: Arial; fill: rgb(102, 92, 84);">Outer London: 96.784</text><g class="collide_cont" name="collide_cont"></g><g class="dialog"></g></svg>
